<?xml version="1.0" encoding="UTF-8"?>
<!--Generator: Apple Native CoreSVG 326-->
<!DOCTYPE svg
PUBLIC "-//W3C//DTD SVG 1.1//EN"
       "http://www.w3.org/Graphics/SVG/1.1/DTD/svg11.dtd">
<svg version="1.1" xmlns="http://www.w3.org/2000/svg" xmlns:xlink="http://www.w3.org/1999/xlink" viewBox="0 0 20.1736 20.1772">
 <g>
  <rect height="20.1772" opacity="0" width="20.1736" x="0" y="0"/>
  <path d="M10.0823 20.1647C15.6531 20.1647 20.1734 15.6531 20.1734 10.0823C20.1734 4.51161 15.6531 0 10.0823 0C4.52029 0-2.22045e-16 4.51161-2.22045e-16 10.0823C-2.22045e-16 15.6531 4.52029 20.1647 10.0823 20.1647ZM10.0823 18.1831C5.60446 18.1831 1.98857 14.5603 1.98857 10.0823C1.98857 5.60444 5.60446 1.98162 10.0823 1.98162C14.5602 1.98162 18.1831 5.60444 18.1831 10.0823C18.1831 14.5603 14.5602 18.1831 10.0823 18.1831Z" fill="#b671cd"/>
  <path d="M9.03231 14.724C9.3781 14.724 9.67989 14.5523 9.89177 14.2327L14.2557 7.41032C14.3858 7.20155 14.4971 6.97024 14.4971 6.74854C14.4971 6.26643 14.0728 5.94371 13.6084 5.94371C13.3182 5.94371 13.0534 6.10428 12.8458 6.43336L8.99585 12.6249L7.18099 10.3082C6.93814 9.99877 6.7065 9.90403 6.41853 9.90403C5.94511 9.90403 5.56661 10.2816 5.56661 10.7671C5.56661 10.998 5.6577 11.2144 5.81609 11.4262L8.1253 14.2389C8.3909 14.5735 8.672 14.724 9.03231 14.724Z" fill="#b671cd"/>
 </g>
</svg>
