<?xml version="1.0" encoding="UTF-8"?>
<!--Generator: Apple Native CoreSVG 326-->
<!DOCTYPE svg
PUBLIC "-//W3C//DTD SVG 1.1//EN"
       "http://www.w3.org/Graphics/SVG/1.1/DTD/svg11.dtd">
<svg version="1.1" xmlns="http://www.w3.org/2000/svg" xmlns:xlink="http://www.w3.org/1999/xlink" viewBox="0 0 19.9198 19.9218">
 <g>
  <rect height="19.9218" opacity="0" width="19.9198" x="0" y="0"/>
  <path d="M9.95468 19.9094C15.4553 19.9094 19.9197 15.4553 19.9197 9.95469C19.9197 4.45409 15.4553 0 9.95468 0C4.46443 0-8.88178e-16 4.45409-8.88178e-16 9.95469C-8.88178e-16 15.4553 4.46443 19.9094 9.95468 19.9094ZM9.95468 18.2559C5.36576 18.2559 1.66173 14.5436 1.66173 9.95469C1.66173 5.36574 5.36576 1.6535 9.95468 1.6535C14.5436 1.6535 18.2559 5.36574 18.2559 9.95469C18.2559 14.5436 14.5436 18.2559 9.95468 18.2559Z" fill="#b872ce"/>
  <path d="M8.88937 14.5902C9.20642 14.5902 9.47574 14.4368 9.67471 14.1364L14.1343 7.11501C14.2503 6.92237 14.3684 6.70269 14.3684 6.48722C14.3684 6.05421 13.9871 5.77434 13.5727 5.77434C13.3219 5.77434 13.0795 5.91946 12.8929 6.21157L8.84586 12.7125L6.92367 10.2197C6.6854 9.90684 6.46783 9.82806 6.20255 9.82806C5.77988 9.82806 5.44824 10.1658 5.44824 10.6031C5.44824 10.8124 5.53737 11.0217 5.67004 11.2082L8.05227 14.1364C8.30301 14.4596 8.55987 14.5902 8.88937 14.5902Z" fill="#b872ce"/>
 </g>
</svg>
