<svg width="500" height="491" viewBox="0 0 500 491" fill="none" xmlns="http://www.w3.org/2000/svg">
<g clip-path="url(#clip0_307_471)">
<path d="M245.547 490.761C381.079 490.761 491.094 380.821 491.094 245.38C491.094 109.94 381.079 0 245.547 0C110.014 0 0 109.94 0 245.38C0 380.821 110.014 490.761 245.547 490.761ZM245.547 449.863C132.402 449.863 40.9245 358.448 40.9245 245.38C40.9245 132.313 132.402 40.8968 245.547 40.8968C358.691 40.8968 450.168 132.313 450.168 245.38C450.168 358.448 358.691 449.863 245.547 449.863Z" fill="#E593FF"/>
<path d="M197.158 385.598C204.943 385.598 211.229 382.194 220.917 373.771L259.843 339.62H326.218C361.511 339.62 382.733 318.045 382.733 283.027V191.592C382.733 156.575 361.511 135 326.218 135H173.514C138.222 135 117 156.518 117 191.592V283.027C117 318.102 139.548 339.62 171.496 339.62H178.878V365.291C178.878 377.81 185.74 385.598 197.158 385.598ZM204.309 352.542V320.526C204.309 312.795 200.561 309.854 193.64 309.854H175.302C156.156 309.854 146.757 300.161 146.757 281.24V193.323C146.757 174.401 156.156 164.767 175.302 164.767H324.431C343.519 164.767 352.977 174.401 352.977 193.323V281.24C352.977 300.161 343.519 309.854 324.431 309.854H257.71C249.694 309.854 246.176 311.353 240.409 317.064L204.309 352.542Z" fill="#E593FF"/>
<path d="M249.982 253.78C257.478 253.78 261.861 249.626 262.207 241.78L264.053 194.188C264.457 186.112 258.459 180.4 249.866 180.4C241.159 180.4 235.334 186.054 235.738 194.13L237.468 241.896C237.814 249.568 242.313 253.78 249.982 253.78ZM249.982 293.296C258.632 293.296 265.264 287.816 265.264 279.451C265.264 271.202 258.69 265.663 249.982 265.663C241.274 265.663 234.527 271.202 234.527 279.451C234.527 287.758 241.331 293.296 249.982 293.296Z" fill="#E593FF"/>
</g>
<defs>
<clipPath id="clip0_307_471">
<rect width="500" height="491" fill="white"/>
</clipPath>
</defs>
</svg>
