<?xml version="1.0" encoding="UTF-8"?>
<!--Generator: Apple Native CoreSVG 326-->
<!DOCTYPE svg
PUBLIC "-//W3C//DTD SVG 1.1//EN"
       "http://www.w3.org/Graphics/SVG/1.1/DTD/svg11.dtd">
<svg version="1.1" xmlns="http://www.w3.org/2000/svg" xmlns:xlink="http://www.w3.org/1999/xlink" viewBox="0 0 23.7147 22.5221">
 <g>
  <rect height="22.5221" opacity="0" width="23.7147" x="0" y="0"/>
  <path d="M3.13147 15.0789L2.13434 15.0789L2.13434 19.1705C2.13434 20.0712 2.59382 20.5085 3.45237 20.5085L19.901 20.5085C20.7498 20.5085 21.216 20.0712 21.216 19.1705L21.216 15.0789L20.2224 15.0789C21.9243 15.0287 22.9572 14.2387 23.2569 12.8358C23.3272 13.1405 23.3534 13.49 23.3534 13.9019L23.3534 19.3298C23.3534 21.3698 22.2074 22.5123 20.0386 22.5123L3.30863 22.5123C1.14961 22.5123 0 21.3792 0 19.3298L0 13.9019C0 13.4895 0.0262899 13.1397 0.0967865 12.8347C0.397469 14.2383 1.43404 15.0287 3.13147 15.0789ZM11.6752 18.026C9.71692 18.026 8.20678 16.768 7.84912 15.0851L9.96945 15.0851C10.3124 15.6265 10.9033 16.0275 11.6752 16.0275C12.4529 16.0275 13.0462 15.6265 13.39 15.0851L15.5043 15.0851C15.1466 16.768 13.6365 18.026 11.6752 18.026Z" fill="black" fill-opacity="0.85"/>
  <path d="M3.31484 15.0851L20.0386 15.0851C22.2074 15.0851 23.3534 13.9426 23.3534 11.8994L23.3534 6.47465C23.3534 5.41829 23.1923 4.75426 22.5204 4.21054L19.1534 1.29928C17.9803 0.331582 17.113 0 15.6459 0L7.70749 0C6.2471 0 5.37314 0.331582 4.20666 1.29928L0.833021 4.21054C0.161072 4.75426 0 5.41829 0 6.47465L0 11.8994C0 13.9426 1.15271 15.0851 3.31484 15.0851ZM11.6752 8.6002C10.4069 8.6002 9.62691 7.51438 9.62691 6.50889L9.62691 6.47604C9.62691 6.1036 9.39829 5.75645 8.87806 5.75645L2.53204 5.75645C2.26171 5.75645 2.20221 5.48701 2.40108 5.31654L5.77427 2.41195C6.28302 1.96089 6.63327 1.78066 7.41505 1.78066L15.9384 1.78066C16.7268 1.78066 17.0704 1.96089 17.5791 2.41195L20.9523 5.31654C21.1481 5.48701 21.0886 5.75645 20.8183 5.75645L14.4754 5.75645C13.952 5.75645 13.7332 6.1036 13.7332 6.47604L13.7332 6.50889C13.7332 7.51438 12.9532 8.6002 11.6752 8.6002ZM11.6752 10.5956C13.6389 10.5956 15.1504 9.33757 15.5059 7.65159L21.216 7.65159L21.216 11.7432C21.216 12.6408 20.7498 13.0781 19.901 13.0781L3.45237 13.0781C2.59382 13.0781 2.13434 12.6408 2.13434 11.7432L2.13434 7.65159L7.84752 7.65159C8.203 9.33757 9.71447 10.5956 11.6752 10.5956Z" fill="black" fill-opacity="0.85"/>
 </g>
</svg>
