<svg width="181" height="172" viewBox="0 0 181 172" fill="none" xmlns="http://www.w3.org/2000/svg">
<g clip-path="url(#clip0_256_484)">
<path d="M21.3426 113.744C21.4801 113.764 21.6191 113.774 21.758 113.774L67.4611 113.751C71.806 113.751 73.6467 116.497 73.6467 119.561V119.809C73.6467 127.901 80.0292 136.753 90.5117 136.753C100.919 136.753 107.302 127.901 107.302 119.809V119.561C107.302 116.497 109.193 113.751 113.487 113.751L159.293 113.774C159.573 113.774 159.831 113.759 160.067 113.729C167.659 113.66 174.174 111.645 179.318 108.028C180.638 111.075 181 114.684 181 119.215V147.666C181 163.386 172.09 172 155.308 172H25.6399C8.90994 172 0 163.335 0 147.666V119.215C0 114.671 0.347221 111.054 1.66248 108C6.91311 111.693 13.5822 113.724 21.3426 113.744Z" fill="black" fill-opacity="0.85"/>
<path d="M25.6399 102H155.308C172.09 102 181 93.3832 181 77.6995V49.3901C181 41.4977 179.896 36.385 174.544 32.1426L148.396 9.93485C139.403 2.55302 132.582 0 121.263 0H59.7366C48.3663 0 41.5686 2.55302 32.5519 9.93485L6.40468 32.1426C1.05236 36.385 0 41.4977 0 49.3901V77.6995C0 93.3832 8.90994 102 25.6399 102ZM90.5117 66.8362C80.0292 66.8362 73.6467 58.0557 73.6467 49.9592V49.6849C73.6467 46.678 71.806 43.8878 67.4611 43.8878L19.6485 43.9114C17.4776 43.9114 17.0922 41.8562 18.6095 40.5558L44.7532 18.4226C48.6963 14.9818 51.3593 13.5832 57.4701 13.5832H123.53C129.589 13.5832 132.252 14.9818 136.246 18.4226L162.39 40.5558C163.908 41.8562 163.471 43.9114 161.375 43.9114L113.487 43.8878C109.193 43.8878 107.302 46.678 107.302 49.6849V49.9592C107.302 58.0557 100.919 66.8362 90.5117 66.8362Z" fill="black" fill-opacity="0.85"/>
</g>
<defs>
<clipPath id="clip0_256_484">
<rect width="181" height="172" fill="white"/>
</clipPath>
</defs>
</svg>
