<svg width="55" height="60" viewBox="0 0 55 60" fill="none" xmlns="http://www.w3.org/2000/svg">
<path fill-rule="evenodd" clip-rule="evenodd" d="M50.2568 3.00684C52.8989 3.14053 55 5.32472 55 8V38C55 40.6753 52.8989 42.8595 50.2568 42.9932L50 43H42V46C42 48.7614 39.7614 51 37 51H5C2.23858 51 0 48.7614 0 46V16C0 13.2386 2.23858 11 5 11H13V8C13 5.23858 15.2386 3 18 3H50L50.2568 3.00684ZM18 6C16.8954 6 16 6.89543 16 8V11H37C39.7614 11 42 13.2386 42 16V40H50C51.1046 40 52 39.1046 52 38V8C52 6.89543 51.1046 6 50 6H18Z" fill="url(#paint0_linear_164_250)"/>
<path opacity="0.8" d="M20.4072 32.458H14.8818V35.0586H19.8652V37.7666H14.8818V46H11.7402V29.75H20.4072V32.458ZM34.5762 34.8057C35.3465 34.8057 36.0691 34.9865 36.7432 35.3477C37.4172 35.6967 37.9645 36.2143 38.3857 36.9004C38.807 37.5745 39.0186 38.3991 39.0186 39.374V46H35.877V39.8252C35.877 39.2474 35.7081 38.7354 35.3711 38.29C35.0341 37.8447 34.5461 37.6221 33.9082 37.6221C33.5713 37.6221 33.2464 37.7066 32.9336 37.875C32.6327 38.0315 32.386 38.2727 32.1934 38.5977C32.0129 38.9106 31.9219 39.3077 31.9219 39.7891V46H28.7803V39.8252C28.7803 39.44 28.7024 39.0782 28.5459 38.7412C28.4014 38.4044 28.1787 38.1333 27.8779 37.9287C27.5891 37.7242 27.2337 37.6221 26.8125 37.6221C26.4756 37.6221 26.1508 37.7066 25.8379 37.875C25.537 38.0315 25.2902 38.2727 25.0977 38.5977C24.9172 38.9106 24.8262 39.3077 24.8262 39.7891V46H21.6846V35.167H24.502V36.3584C24.8871 35.853 25.3622 35.4679 25.9277 35.2031C26.5055 34.9383 27.1075 34.8057 27.7334 34.8057C28.3714 34.8057 28.9733 34.9383 29.5391 35.2031C30.1047 35.4679 30.5807 35.8529 30.9658 36.3584C31.387 35.853 31.9104 35.4679 32.5361 35.2031C33.162 34.9383 33.842 34.8057 34.5762 34.8057Z" fill="black"/>
<defs>
<linearGradient id="paint0_linear_164_250" x1="27.5" y1="3" x2="27.5" y2="51" gradientUnits="userSpaceOnUse">
<stop stop-color="#E693FF"/>
<stop offset="1" stop-color="#6E327F"/>
</linearGradient>
</defs>
</svg>
